<svg width="260" height="318" viewBox="0 0 260 318" fill="none" xmlns="http://www.w3.org/2000/svg">
<path d="M212.114 0.0291748H26.3367C19.3529 0.0361917 12.6572 2.81405 7.71959 7.75295C2.78193 12.6919 0.00574892 19.3882 0.000488281 26.372V275.161C0.00574892 282.145 2.78193 288.842 7.71959 293.78C12.6572 298.719 19.3529 301.497 26.3367 301.504H212.114C212.511 301.504 212.889 301.418 213.28 301.405L223.606 311.725C227.634 315.752 232.992 317.971 238.682 317.971C244.372 317.971 249.737 315.752 253.764 311.725C257.757 307.724 260 302.302 260 296.649C260 290.996 257.757 285.574 253.764 281.573L238.45 266.259V26.372C238.445 19.3882 235.669 12.6919 230.731 7.75295C225.793 2.81405 219.098 0.0361917 212.114 0.0291748ZM26.3367 288.257C22.8664 288.253 19.5393 286.873 17.0855 284.419C14.6317 281.965 13.2516 278.638 13.2481 275.168V26.372C13.2481 19.152 19.1167 13.2767 26.3367 13.2767H212.114C219.334 13.2767 225.203 19.152 225.203 26.372V253.011L216.658 244.467C230.25 218.084 226.031 184.826 203.947 162.749C190.706 149.502 173.1 142.215 154.374 142.215C145.163 142.189 136.038 143.99 127.528 147.515C119.017 151.039 111.291 156.217 104.795 162.749C91.5545 175.997 84.2617 193.596 84.2617 212.328C84.2617 231.054 91.5545 248.66 104.795 261.901C118.043 275.148 135.642 282.434 154.374 282.434C165.747 282.434 176.697 279.712 186.513 274.632L200.138 288.257H26.3367ZM154.374 269.193C139.179 269.193 124.905 263.278 114.168 252.535C103.431 241.791 97.5092 227.516 97.5092 212.328C97.5092 197.133 103.424 182.859 114.168 172.122C124.912 161.385 139.179 155.463 154.374 155.463C169.563 155.463 183.844 161.378 194.581 172.115C216.751 194.292 216.751 230.358 194.581 252.535C189.313 257.832 183.048 262.032 176.146 264.891C169.245 267.75 161.845 269.213 154.374 269.193ZM244.392 302.359C241.345 305.406 236.032 305.412 232.979 302.359L197.873 267.259C199.979 265.59 202.019 263.828 203.947 261.901C205.881 259.966 207.643 257.926 209.299 255.84L244.398 290.939C245.909 292.455 246.758 294.508 246.758 296.649C246.758 298.789 245.903 300.843 244.392 302.359Z" fill="black"/>
<path d="M39.8685 62.5574H198.588C200.344 62.5574 202.029 61.8595 203.271 60.6173C204.514 59.3751 205.211 57.6903 205.211 55.9336C205.211 54.1769 204.514 52.4921 203.271 51.2499C202.029 50.0077 200.344 49.3098 198.588 49.3098H39.8685C38.1118 49.3098 36.427 50.0077 35.1848 51.2499C33.9426 52.4921 33.2448 54.1769 33.2448 55.9336C33.2448 57.6903 33.9426 59.3751 35.1848 60.6173C36.427 61.8595 38.1118 62.5574 39.8685 62.5574ZM39.8685 103.095H198.588C200.344 103.095 202.029 102.397 203.271 101.155C204.514 99.9127 205.211 98.2279 205.211 96.4712C205.211 94.7144 204.514 93.0297 203.271 91.7875C202.029 90.5453 200.344 89.8474 198.588 89.8474H39.8685C38.1118 89.8474 36.427 90.5453 35.1848 91.7875C33.9426 93.0297 33.2448 94.7144 33.2448 96.4712C33.2448 98.2279 33.9426 99.9127 35.1848 101.155C36.427 102.397 38.1118 103.095 39.8685 103.095ZM86.3079 137.009C86.3079 135.252 85.61 133.567 84.3678 132.325C83.1256 131.083 81.4408 130.385 79.6841 130.385H39.8685C38.1118 130.385 36.427 131.083 35.1848 132.325C33.9426 133.567 33.2448 135.252 33.2448 137.009C33.2448 138.765 33.9426 140.45 35.1848 141.692C36.427 142.935 38.1118 143.633 39.8685 143.633H79.6841C81.4408 143.633 83.1256 142.935 84.3678 141.692C85.61 140.45 86.3079 138.765 86.3079 137.009ZM63.7208 170.923H39.8685C38.1118 170.923 36.427 171.62 35.1848 172.863C33.9426 174.105 33.2448 175.79 33.2448 177.546C33.2448 179.303 33.9426 180.988 35.1848 182.23C36.427 183.472 38.1118 184.17 39.8685 184.17H63.7142C65.4709 184.17 67.1557 183.472 68.3979 182.23C69.6401 180.988 70.338 179.303 70.338 177.546C70.338 175.79 69.6401 174.105 68.3979 172.863C67.1557 171.62 65.4775 170.923 63.7208 170.923ZM63.7208 211.46H39.8685C38.1118 211.46 36.427 212.158 35.1848 213.4C33.9426 214.642 33.2448 216.327 33.2448 218.084C33.2448 219.841 33.9426 221.525 35.1848 222.768C36.427 224.01 38.1118 224.708 39.8685 224.708H63.7142C65.4709 224.708 67.1557 224.01 68.3979 222.768C69.6401 221.525 70.338 219.841 70.338 218.084C70.338 216.327 69.6401 214.642 68.3979 213.4C67.1557 212.158 65.4775 211.46 63.7208 211.46ZM154.374 168.71C148.644 168.695 142.968 169.816 137.674 172.009C132.38 174.203 127.574 177.424 123.534 181.487C119.468 185.527 116.245 190.333 114.051 195.626C111.856 200.92 110.734 206.597 110.75 212.328C110.75 214.085 111.448 215.769 112.69 217.012C113.932 218.254 115.617 218.952 117.373 218.952C119.13 218.952 120.815 218.254 122.057 217.012C123.299 215.769 123.997 214.085 123.997 212.328C123.997 204.214 127.163 196.59 132.9 190.854C135.713 188.025 139.06 185.782 142.746 184.255C146.432 182.728 150.384 181.947 154.374 181.958C156.131 181.958 157.815 181.26 159.058 180.018C160.3 178.776 160.998 177.091 160.998 175.334C160.998 173.577 160.3 171.892 159.058 170.65C157.815 169.408 156.131 168.71 154.374 168.71Z" fill="#5CB96F"/>
</svg>
